<svg xmlns="http://www.w3.org/2000/svg" viewBox="0 0 64 64" role="img" aria-labelledby="title desc">
  <title id="title">Bitexa favicon</title>
  <desc id="desc">A glowing binary-inspired logo for Bitexa.</desc>
  <defs>
    <linearGradient id="bitexa-bg" x1="12" y1="10" x2="52" y2="54" gradientUnits="userSpaceOnUse">
      <stop offset="0" stop-color="#39f6dd" />
      <stop offset="1" stop-color="#14b8ff" />
    </linearGradient>
    <linearGradient id="bitexa-shine" x1="16" y1="12" x2="48" y2="48" gradientUnits="userSpaceOnUse">
      <stop offset="0" stop-color="#ffffff" stop-opacity="0.32" />
      <stop offset="1" stop-color="#ffffff" stop-opacity="0" />
    </linearGradient>
  </defs>
  <rect x="4" y="4" width="56" height="56" rx="16" fill="#06111d" />
  <rect x="6" y="6" width="52" height="52" rx="14" fill="url(#bitexa-bg)" />
  <path d="M16 6h28c-7 8-18 16-38 18V16A10 10 0 0 1 16 6Z" fill="url(#bitexa-shine)" />
  <g transform="translate(8 8) scale(2)" fill="none" stroke="#041019" stroke-linecap="round" stroke-linejoin="round" stroke-width="2.8">
    <rect x="14" y="14" width="4" height="6" rx="2" />
    <rect x="6" y="4" width="4" height="6" rx="2" />
    <path d="M6 20h4" />
    <path d="M14 10h4" />
    <path d="M6 14h2v6" />
    <path d="M14 4h2v6" />
  </g>
</svg>
